<?xml version="1.0" encoding="utf-8"?>
<!-- Generator: Adobe Illustrator 28.0.0, SVG Export Plug-In . SVG Version: 6.00 Build 0)  -->
<svg version="1.1" id="Ebene_1" xmlns="http://www.w3.org/2000/svg" xmlns:xlink="http://www.w3.org/1999/xlink" x="0px" y="0px"
	 viewBox="0 0 78 26" style="enable-background:new 0 0 78 26;" xml:space="preserve">
<path d="M12.8,24.1C11.5,25.4,9.4,26,7.1,26c-2.1,0-4-0.6-5.4-1.9c-1-0.9-1.8-2.3-1.8-3.9h3.8c0,0.7,0.4,1.5,0.9,2
	c0.6,0.5,1.4,0.7,2.5,0.7c1.3,0,3.4-0.3,3.4-2.1c0-1-0.6-1.6-1.7-1.8c-1.5-0.2-3.1-0.3-4.6-0.6C2,17.9,0.5,16,0.5,13.9
	c0-1.7,0.7-2.9,1.7-3.8c1.2-1.1,3-1.7,5.1-1.7c2,0,4,0.6,5.2,2c0.9,1,1.5,2.2,1.5,3.4h-3.8c0-0.6-0.3-1.2-0.7-1.6
	c-0.5-0.5-1.3-0.8-2.2-0.8c-0.6,0-1.1,0-1.7,0.3c-0.7,0.3-1.3,0.9-1.3,1.8c0,1.2,1,1.5,1.9,1.7c1.5,0.2,1.9,0.2,3.6,0.5
	c2.6,0.4,4.6,2.1,4.6,4.7C14.3,22,13.7,23.2,12.8,24.1z"/>
<path d="M32.5,18.5H21.3c0,1.3,0.4,2.5,1.2,3.3c0.6,0.5,1.4,1,2.5,1c1.2,0,1.9-0.2,2.4-0.8c0.4-0.4,0.6-0.8,0.8-1.4h3.8
	c-0.1,1-0.8,2.3-1.4,3.1c-1.4,1.7-3.5,2.3-5.6,2.3c-2.3,0-3.9-0.8-5.3-2.1c-1.7-1.6-2.6-3.9-2.6-6.7c0-2.7,0.8-5,2.4-6.7
	c1.3-1.3,3-2.1,5.3-2.1c2.5,0,4.7,1,6.1,3.1c1.2,1.8,1.5,3.7,1.4,5.8C32.5,17.4,32.5,18.1,32.5,18.5z M27.5,12.7
	c-0.5-0.6-1.4-1-2.5-1c-1.2,0-2.2,0.5-2.8,1.3c-0.6,0.7-0.8,1.5-0.9,2.6h7.2C28.5,14.3,28.1,13.4,27.5,12.7z M22.6,7.1l-1.4-2.3
	L27.6,0l2,3.2L22.6,7.1z"/>
<path d="M46.7,25.6V15.4c0-2-0.6-3.1-2.8-3.1c-1.4,0-2.3,0.9-2.9,2.1c-0.6,1.3-0.5,3-0.5,4.5v6.8h-4V8.9h3.4l0.3,2.1
	c1-1.8,3-2.6,4.9-2.6c3.6,0,5.6,2.5,5.6,6v11.1L46.7,25.6L46.7,25.6z"/>
<path d="M55.3,25.6V8.9h4.1v16.7L55.3,25.6L55.3,25.6z"/>
<path d="M76.7,23.3c-1.2,1.4-3.2,2.6-5.7,2.6s-4.6-1.2-5.8-2.6c-1.3-1.6-1.8-3.7-1.8-6.1s0.6-4.5,1.8-6.1c1.2-1.4,3.3-2.6,5.8-2.6
	s4.6,1.2,5.7,2.6c0.8,1,1.2,2.3,1.3,3.6H74c0-0.6-0.2-1.1-0.5-1.5C73.1,12.5,72.2,12,71,12c-1.1,0-1.9,0.4-2.4,1
	c-1,1.1-1.1,2.7-1.1,4.2s0.2,3.1,1.1,4.2c0.5,0.6,1.3,1.1,2.4,1.1c1.2,0,2.1-0.5,2.6-1.3c0.3-0.4,0.4-0.9,0.5-1.5H78
	C77.9,21,77.5,22.3,76.7,23.3z"/>
<rect x="55.3" y="2.4" width="4.1" height="4.1"/>
</svg>
